<?xml version="1.0" encoding="utf-8"?>
<!-- Generator: Adobe Illustrator 16.0.3, SVG Export Plug-In . SVG Version: 6.00 Build 0)  -->
<!DOCTYPE svg PUBLIC "-//W3C//DTD SVG 1.1//EN" "http://www.w3.org/Graphics/SVG/1.1/DTD/svg11.dtd">
<svg version="1.1" id="Capa_1" xmlns="http://www.w3.org/2000/svg" xmlns:xlink="http://www.w3.org/1999/xlink" x="0px" y="0px"
	 width="612px" height="792px" viewBox="0 0 612 792" enable-background="new 0 0 612 792" xml:space="preserve">
<path fill="#D8808B" d="M-282.715,290.054c0,3.479-1.371,6.629-3.604,8.957c-2.359,2.457-5.684,3.99-9.363,3.99
	c-7.163,0-12.966-5.795-12.966-12.946c0-0.965,0.108-1.907,0.307-2.815c1.291-5.794,6.463-10.131,12.659-10.131
	c2.291,0,4.44,0.59,6.305,1.635c0.006,0,0.011,0,0.017,0.005l4.821,4.683C-283.38,285.366-282.715,287.63-282.715,290.054z"/>
<g>
	<path fill="#A85656" d="M-286.319,299.01c-2.359,2.458-5.684,3.99-9.363,3.99c-7.163,0-12.966-5.795-12.966-12.946
		c0-0.964,0.108-1.907,0.307-2.815c2.137,7.259,8.856,12.555,16.821,12.555C-289.713,299.793-287.962,299.521-286.319,299.01z"/>
	<path fill="#A85656" d="M-283.029,281.922l-1.511,1.508l-0.002-0.001c-0.487,0.487-1.949-0.184-3.265-1.497
		c-1.315-1.314-1.987-2.773-1.5-3.26l-0.071,0.07l1.579-1.576"/>
</g>
<ellipse transform="matrix(-0.7077 -0.7066 0.7066 -0.7077 -684.9035 275.6987)" fill="#F96858" cx="-285.415" cy="279.543" rx="3.366" ry="1.247"/>
<path fill="#8FA3A9" d="M-281.399,276.217l-3.673,3.667c-0.094,0.094-0.218,0.142-0.341,0.142c-0.124,0-0.248-0.047-0.342-0.142
	c-0.188-0.188-0.188-0.494,0-0.682l1.737-1.734c0,0,0.001-0.002,0.002-0.003l1.935-1.93c0.188-0.188,0.494-0.188,0.683,0
	C-281.21,275.723-281.21,276.028-281.399,276.217z"/>
<path fill="#EC1422" d="M-281.399,276.217l-1.934,1.931c-0.094,0.094-0.218,0.142-0.342,0.142s-0.248-0.047-0.342-0.142
	c-0.188-0.188-0.188-0.491-0.002-0.68c0,0,0.001-0.002,0.002-0.003l1.935-1.93c0.188-0.188,0.494-0.188,0.683,0
	C-281.21,275.723-281.21,276.028-281.399,276.217z"/>
<path fill="#F96858" d="M-298.037,279.518c-2.885,0.45,5.413,6.743,10.159,9.118c0.662,0.331,1.449-0.11,1.524-0.846
	c0.083-0.811,0.015-1.953-0.551-3.354C-287.902,281.968-293.584,278.809-298.037,279.518z"/>
<g>
	<path fill="#F49F00" d="M-281.606,274.25c-0.267,0-0.483-0.216-0.483-0.482v-2.286c0-0.267,0.217-0.482,0.483-0.482
		s0.483,0.216,0.483,0.482v2.286C-281.122,274.034-281.339,274.25-281.606,274.25z"/>
	<path fill="#F49F00" d="M-281.606,281.037c-0.267,0-0.483-0.216-0.483-0.482v-2.285c0-0.267,0.217-0.483,0.483-0.483
		s0.483,0.216,0.483,0.483v2.285C-281.122,280.821-281.339,281.037-281.606,281.037z"/>
	<path fill="#F49F00" d="M-283.054,274.777c-0.138,0-0.275-0.059-0.371-0.172l-1.471-1.751c-0.171-0.205-0.145-0.508,0.06-0.68
		s0.509-0.145,0.681,0.059l1.472,1.751c0.171,0.204,0.145,0.508-0.06,0.68C-282.835,274.74-282.945,274.777-283.054,274.777z"/>
	<path fill="#F49F00" d="M-278.685,279.976c-0.138,0-0.275-0.058-0.371-0.172l-1.471-1.75c-0.172-0.204-0.145-0.508,0.059-0.68
		c0.205-0.171,0.509-0.145,0.681,0.06l1.471,1.75c0.172,0.204,0.146,0.508-0.059,0.68
		C-278.465,279.939-278.575,279.976-278.685,279.976z"/>
	<path fill="#F49F00" d="M-283.825,276.11c-0.028,0-0.056-0.002-0.084-0.007l-2.254-0.397c-0.263-0.046-0.438-0.296-0.392-0.559
		c0.046-0.262,0.296-0.438,0.56-0.391l2.254,0.396c0.263,0.047,0.438,0.297,0.392,0.559
		C-283.391,275.946-283.595,276.11-283.825,276.11z"/>
	<path fill="#F49F00" d="M-277.131,277.289c-0.028,0-0.056-0.002-0.084-0.007l-2.254-0.396c-0.263-0.046-0.438-0.296-0.392-0.559
		c0.046-0.262,0.297-0.438,0.56-0.392l2.254,0.397c0.263,0.046,0.438,0.296,0.392,0.559
		C-276.697,277.124-276.901,277.289-277.131,277.289z"/>
	<path fill="#F49F00" d="M-279.653,275.376c-0.167,0-0.329-0.087-0.419-0.242c-0.133-0.231-0.054-0.526,0.177-0.659l1.982-1.143
		c0.231-0.133,0.527-0.054,0.66,0.177c0.133,0.23,0.054,0.526-0.177,0.659l-1.982,1.143
		C-279.488,275.355-279.571,275.376-279.653,275.376z"/>
</g>
<path fill="#564F4F" d="M-320.236,290.054c0,3.479-1.371,6.629-3.604,8.957c-2.359,2.457-5.684,3.99-9.363,3.99
	c-7.163,0-12.966-5.795-12.966-12.946c0-0.965,0.108-1.907,0.307-2.815c1.291-5.794,6.463-10.131,12.659-10.131
	c2.291,0,4.44,0.59,6.305,1.635c0.006,0,0.011,0,0.017,0.005l4.821,4.683C-320.901,285.366-320.236,287.63-320.236,290.054z"/>
<g>
	<path fill="#A09C9C" d="M-323.84,299.01c-2.359,2.458-5.684,3.99-9.363,3.99c-7.163,0-12.966-5.795-12.966-12.946
		c0-0.964,0.108-1.907,0.307-2.815c2.137,7.259,8.856,12.555,16.821,12.555C-327.234,299.793-325.483,299.521-323.84,299.01z"/>
	<path fill="#A09C9C" d="M-320.55,281.922l-1.511,1.508l-0.002-0.001c-0.487,0.487-1.949-0.184-3.265-1.497
		c-1.315-1.314-1.987-2.773-1.5-3.26l-0.071,0.07l1.579-1.576"/>
</g>
<ellipse transform="matrix(-0.7077 -0.7066 0.7066 -0.7077 -748.9763 249.1878)" fill="#BCBCBC" cx="-322.936" cy="279.543" rx="3.366" ry="1.247"/>
<path fill="#8FA3A9" d="M-318.92,276.217l-3.673,3.667c-0.094,0.094-0.218,0.142-0.341,0.142c-0.124,0-0.248-0.047-0.342-0.142
	c-0.188-0.188-0.188-0.494,0-0.682l1.737-1.734c0,0,0.001-0.002,0.002-0.003l1.935-1.93c0.188-0.188,0.494-0.188,0.683,0
	C-318.731,275.723-318.731,276.028-318.92,276.217z"/>
<path fill="#EC1422" d="M-318.92,276.217l-1.934,1.931c-0.094,0.094-0.218,0.142-0.342,0.142s-0.248-0.047-0.342-0.142
	c-0.188-0.188-0.188-0.491-0.002-0.68c0,0,0.001-0.002,0.002-0.003l1.935-1.93c0.188-0.188,0.494-0.188,0.683,0
	C-318.731,275.723-318.731,276.028-318.92,276.217z"/>
<path fill="#BCBCBC" d="M-335.558,279.518c-2.885,0.45,5.413,6.743,10.159,9.118c0.662,0.331,1.449-0.11,1.524-0.846
	c0.083-0.811,0.015-1.953-0.551-3.354C-325.423,281.968-331.105,278.809-335.558,279.518z"/>
<g>
	<path fill="#F49F00" d="M-319.127,274.25c-0.267,0-0.483-0.216-0.483-0.482v-2.286c0-0.267,0.217-0.482,0.483-0.482
		s0.483,0.216,0.483,0.482v2.286C-318.643,274.034-318.86,274.25-319.127,274.25z"/>
	<path fill="#F49F00" d="M-319.127,281.037c-0.267,0-0.483-0.216-0.483-0.482v-2.285c0-0.267,0.217-0.483,0.483-0.483
		s0.483,0.216,0.483,0.483v2.285C-318.643,280.821-318.86,281.037-319.127,281.037z"/>
	<path fill="#F49F00" d="M-320.575,274.777c-0.138,0-0.275-0.059-0.371-0.172l-1.471-1.751c-0.171-0.205-0.145-0.508,0.06-0.68
		s0.509-0.145,0.681,0.059l1.472,1.751c0.171,0.204,0.145,0.508-0.06,0.68C-320.356,274.74-320.466,274.777-320.575,274.777z"/>
	<path fill="#F49F00" d="M-316.206,279.976c-0.138,0-0.275-0.058-0.371-0.172l-1.471-1.75c-0.172-0.204-0.145-0.508,0.059-0.68
		c0.205-0.171,0.509-0.145,0.681,0.06l1.471,1.75c0.172,0.204,0.146,0.508-0.059,0.68
		C-315.986,279.939-316.096,279.976-316.206,279.976z"/>
	<path fill="#F49F00" d="M-321.346,276.11c-0.028,0-0.056-0.002-0.084-0.007l-2.254-0.397c-0.263-0.046-0.438-0.296-0.392-0.559
		c0.046-0.262,0.296-0.438,0.56-0.391l2.254,0.396c0.263,0.047,0.438,0.297,0.392,0.559
		C-320.912,275.946-321.116,276.11-321.346,276.11z"/>
	<path fill="#F49F00" d="M-314.652,277.289c-0.028,0-0.056-0.002-0.084-0.007l-2.254-0.396c-0.263-0.046-0.438-0.296-0.392-0.559
		c0.046-0.262,0.297-0.438,0.56-0.392l2.254,0.397c0.263,0.046,0.438,0.296,0.392,0.559
		C-314.218,277.124-314.422,277.289-314.652,277.289z"/>
	<path fill="#F49F00" d="M-317.174,275.376c-0.167,0-0.329-0.087-0.419-0.242c-0.133-0.231-0.054-0.526,0.177-0.659l1.982-1.143
		c0.231-0.133,0.527-0.054,0.66,0.177c0.133,0.23,0.054,0.526-0.177,0.659l-1.982,1.143
		C-317.009,275.355-317.092,275.376-317.174,275.376z"/>
</g>
<path fill="#D10806" d="M-246.798,290.054c0,3.479-1.371,6.629-3.604,8.957c-2.359,2.457-5.684,3.99-9.363,3.99
	c-7.163,0-12.966-5.795-12.966-12.946c0-0.965,0.108-1.907,0.307-2.815c1.291-5.794,6.463-10.131,12.659-10.131
	c2.291,0,4.44,0.59,6.305,1.635c0.006,0,0.011,0,0.017,0.005l4.821,4.683C-247.464,285.366-246.798,287.63-246.798,290.054z"/>
<g>
	<path fill="#D12F34" d="M-250.403,299.01c-2.359,2.458-5.684,3.99-9.363,3.99c-7.163,0-12.966-5.795-12.966-12.946
		c0-0.964,0.108-1.907,0.307-2.815c2.137,7.259,8.856,12.555,16.821,12.555C-253.797,299.793-252.046,299.521-250.403,299.01z"/>
	<path fill="#D12F34" d="M-247.113,281.922l-1.511,1.508l-0.002-0.001c-0.487,0.487-1.949-0.184-3.265-1.497
		c-1.315-1.314-1.987-2.773-1.5-3.26l-0.071,0.07l1.579-1.576"/>
</g>
<ellipse transform="matrix(-0.7077 -0.7066 0.7066 -0.7077 -623.5707 301.076)" fill="#E84227" cx="-249.498" cy="279.543" rx="3.366" ry="1.247"/>
<path fill="#8FA3A9" d="M-245.483,276.217l-3.673,3.667c-0.094,0.094-0.218,0.142-0.341,0.142c-0.124,0-0.248-0.047-0.342-0.142
	c-0.188-0.188-0.188-0.494,0-0.682l1.737-1.734c0,0,0.001-0.002,0.002-0.003l1.935-1.93c0.188-0.188,0.494-0.188,0.683,0
	C-245.294,275.723-245.294,276.028-245.483,276.217z"/>
<path fill="#EC1422" d="M-245.483,276.217l-1.934,1.931c-0.094,0.094-0.218,0.142-0.342,0.142s-0.248-0.047-0.342-0.142
	c-0.188-0.188-0.188-0.491-0.002-0.68c0,0,0.001-0.002,0.002-0.003l1.935-1.93c0.188-0.188,0.494-0.188,0.683,0
	C-245.294,275.723-245.294,276.028-245.483,276.217z"/>
<path fill="#E84227" d="M-262.12,279.518c-2.885,0.45,5.413,6.743,10.159,9.118c0.662,0.331,1.449-0.11,1.524-0.846
	c0.083-0.811,0.015-1.953-0.551-3.354C-251.985,281.968-257.667,278.809-262.12,279.518z"/>
<g>
	<path fill="#F49F00" d="M-245.689,274.25c-0.267,0-0.483-0.216-0.483-0.482v-2.286c0-0.267,0.217-0.482,0.483-0.482
		s0.483,0.216,0.483,0.482v2.286C-245.206,274.034-245.423,274.25-245.689,274.25z"/>
	<path fill="#F49F00" d="M-245.689,281.037c-0.267,0-0.483-0.216-0.483-0.482v-2.285c0-0.267,0.217-0.483,0.483-0.483
		s0.483,0.216,0.483,0.483v2.285C-245.206,280.821-245.423,281.037-245.689,281.037z"/>
	<path fill="#F49F00" d="M-247.138,274.777c-0.138,0-0.275-0.059-0.371-0.172l-1.471-1.751c-0.171-0.205-0.145-0.508,0.06-0.68
		s0.509-0.145,0.681,0.059l1.472,1.751c0.171,0.204,0.145,0.508-0.06,0.68C-246.918,274.74-247.029,274.777-247.138,274.777z"/>
	<path fill="#F49F00" d="M-242.768,279.976c-0.138,0-0.275-0.058-0.371-0.172l-1.471-1.75c-0.172-0.204-0.145-0.508,0.059-0.68
		c0.205-0.171,0.509-0.145,0.681,0.06l1.471,1.75c0.172,0.204,0.146,0.508-0.059,0.68
		C-242.549,279.939-242.659,279.976-242.768,279.976z"/>
	<path fill="#F49F00" d="M-247.908,276.11c-0.028,0-0.056-0.002-0.084-0.007l-2.254-0.397c-0.263-0.046-0.438-0.296-0.392-0.559
		c0.046-0.262,0.296-0.438,0.56-0.391l2.254,0.396c0.263,0.047,0.438,0.297,0.392,0.559
		C-247.475,275.946-247.679,276.11-247.908,276.11z"/>
	<path fill="#F49F00" d="M-241.214,277.289c-0.028,0-0.056-0.002-0.084-0.007l-2.254-0.396c-0.263-0.046-0.438-0.296-0.392-0.559
		c0.046-0.262,0.297-0.438,0.56-0.392l2.254,0.397c0.263,0.046,0.438,0.296,0.392,0.559
		C-240.781,277.124-240.985,277.289-241.214,277.289z"/>
	<path fill="#F49F00" d="M-243.737,275.376c-0.167,0-0.329-0.087-0.419-0.242c-0.133-0.231-0.054-0.526,0.177-0.659l1.982-1.143
		c0.231-0.133,0.527-0.054,0.66,0.177c0.133,0.23,0.054,0.526-0.177,0.659l-1.982,1.143
		C-243.571,275.355-243.655,275.376-243.737,275.376z"/>
</g>
</svg>
